<?xml version="1.0" encoding="iso-8859-1"?>

<svg width="400" height="400" xmlns="http://www.w3.org/2000/svg" xmlns:xlink="http://www.w3.org/1999/xlink">
                    <g>
                       
            
        <path stroke="#dfe6e9" d="M200 50 L200 40" stroke-width="2"></path><path stroke="#fff" d="M207.24700692882607 50.175165975151 L207.4885738264536 45.181004840989374" stroke-width="2"></path><path stroke="#fff" d="M214.47708813717728 50.700254792352695 L214.95965774174985 45.723596618764454" stroke-width="2"></path><path stroke="#fff" d="M221.6733574353832 51.57404008234232 L222.3958026832293 46.62650808508707" stroke-width="2"></path><path stroke="#fff" d="M228.8190076030563 52.79448107908797 L229.77964118982484 47.88763044839091" stroke-width="2"></path><path stroke="#dfe6e9" d="M235.89734964313368 54.3587273860922 L238.29050628600925 44.64930921183168" stroke-width="2"></path><path stroke="#fff" d="M242.8918517598034 56.263125633625066 L244.32158015179684 51.47189648807924" stroke-width="2"></path><path stroke="#fff" d="M249.78617796927927 58.503228011338535 L251.44571723492191 53.78666894504982" stroke-width="2"></path><path stroke="#fff" d="M256.5642262532481 61.07380265633353 L258.4497004616897 56.44292941154465" stroke-width="2"></path><path stroke="#fff" d="M263.21016616587934 63.96884587241817 L265.317171704742 59.43447406816544" stroke-width="2"></path><path stroke="#dfe6e9" d="M269.7084758065653 67.1815961520185 L274.35570752700295 58.327035895486404" stroke-width="2"></path><path stroke="#fff" d="M276.0439780720386 70.70454996799262 L278.57877734110656 66.39470163359238" stroke-width="2"></path><path stroke="#fff" d="M282.2018761032005 74.529479298466 L284.94193863997384 70.34712860841486" stroke-width="2"></path><path stroke="#fff" d="M288.167787843871 78.64745084375788 L291.10671410533337 74.60236587188314" stroke-width="2"></path><path stroke="#fff" d="M293.92777963074707 83.04884689051664 L297.05870561843864 79.15047512020053" stroke-width="2"></path><path stroke="#dfe6e9" d="M299.4683987361193 87.72338777433484 L306.0996253185273 80.23828029262383" stroke-width="2"></path><path stroke="#fff" d="M304.7767047873406 92.66015588838185 L308.2692616135853 89.08216108466125" stroke-width="2"></path><path stroke="#fff" d="M309.84029998966605 97.84762118198043 L313.5016433226549 94.44254188804645" stroke-width="2"></path><path stroke="#fff" d="M314.64735808187726 103.27366808957441 L318.4689366846065 100.04945702589356" stroke-width="2"></path><path stroke="#fff" d="M319.1866519570632 108.92562382719332 L323.159540355632 105.88981128809976" stroke-width="2"></path><path stroke="#dfe6e9" d="M323.4475798840485 114.79028799032665 L331.67741854298504 109.10964052301509" stroke-width="2"></path><path stroke="#fff" d="M327.42019026822817 120.85396338408009 L331.6675299438358 118.21576216354943" stroke-width="2"></path><path stroke="#fff" d="M331.09520489397767 127.1024880136091 L335.4650450571103 124.67257094739607" stroke-width="2"></path><path stroke="#fff" d="M334.46404059435554 133.5212681601138 L338.94617528083404 131.3053104321176" stroke-width="2"></path><path stroke="#fff" d="M337.5188292974874 140.0953124651457 L342.1027902740703 138.09848954731723" stroke-width="2"></path><path stroke="#dfe6e9" d="M340.25243640281224 146.80926694361966 L349.60259882966636 143.2632180731943" stroke-width="2"></path><path stroke="#fff" d="M342.658477444273 153.6474508437579 L347.41376002574873 152.10236587188317" stroke-width="2"></path><path stroke="#fff" d="M344.73133300153273 160.593893270212 L349.5557107682505 159.28035637921906" stroke-width="2"></path><path stroke="#fff" d="M346.46616182439084 167.6323704848291 L351.3483672185372 166.55344950099007" stroke-width="2"></path><path stroke="#fff" d="M347.85891213974764 174.74644379794424 L352.7875425444059 173.90465859120906" stroke-width="2"></path><path stroke="#dfe6e9" d="M348.9063311147081 181.91949796170155 L358.83341985568865 180.7141311591483" stroke-width="2"></path><path stroke="#fff" d="M349.60597245372367 189.13477997573565 L354.5928382021811 188.77260597492685" stroke-width="2"></path><path stroke="#fff" d="M349.9562021120289 196.37543821458019 L354.95474218242987 196.25461948839953" stroke-width="2"></path><path stroke="#fff" d="M349.9562021120289 203.62456178541981 L354.95474218242987 203.74538051160047" stroke-width="2"></path><path stroke="#fff" d="M349.60597245372367 210.86522002426435 L354.5928382021811 211.22739402507315" stroke-width="2"></path><path stroke="#dfe6e9" d="M348.9063311147081 218.08050203829845 L358.83341985568865 219.2858688408517" stroke-width="2"></path><path stroke="#fff" d="M347.85891213974764 225.2535562020558 L352.7875425444059 226.09534140879097" stroke-width="2"></path><path stroke="#fff" d="M346.46616182439084 232.3676295151709 L351.3483672185372 233.44655049900993" stroke-width="2"></path><path stroke="#fff" d="M344.73133300153273 239.40610672978804 L349.5557107682505 240.71964362078097" stroke-width="2"></path><path stroke="#fff" d="M342.658477444273 246.3525491562421 L347.41376002574873 247.89763412811683" stroke-width="2"></path><path stroke="#dfe6e9" d="M340.25243640281224 253.19073305638037 L349.60259882966636 256.73678192680575" stroke-width="2"></path><path stroke="#fff" d="M337.5188292974874 259.9046875348543 L342.1027902740703 261.90151045268277" stroke-width="2"></path><path stroke="#fff" d="M334.46404059435554 266.4787318398862 L338.94617528083404 268.69468956788245" stroke-width="2"></path><path stroke="#fff" d="M331.09520489397767 272.8975119863909 L335.4650450571103 275.3274290526039" stroke-width="2"></path><path stroke="#fff" d="M327.4201902682281 279.1460366159199 L331.6675299438357 281.7842378364506" stroke-width="2"></path><path stroke="#dfe6e9" d="M323.4475798840485 285.20971200967335 L331.67741854298504 290.8903594769849" stroke-width="2"></path><path stroke="#fff" d="M319.18665195706313 291.0743761728067 L323.1595403556319 294.11018871190026" stroke-width="2"></path><path stroke="#fff" d="M314.64735808187726 296.72633191042553 L318.4689366846065 299.9505429741064" stroke-width="2"></path><path stroke="#fff" d="M309.840299989666 302.1523788180196 L313.50164332265484 305.55745811195357" stroke-width="2"></path><path stroke="#fff" d="M304.7767047873406 307.33984411161816 L308.2692616135853 310.9178389153388" stroke-width="2"></path><path stroke="#dfe6e9" d="M299.4683987361193 312.2766122256652 L306.0996253185273 319.7617197073762" stroke-width="2"></path><path stroke="#fff" d="M293.92777963074707 316.95115310948336 L297.05870561843864 320.84952487979945" stroke-width="2"></path><path stroke="#fff" d="M288.167787843871 321.3525491562421 L291.10671410533337 325.39763412811686" stroke-width="2"></path><path stroke="#fff" d="M282.20187610320045 325.47052070153404 L284.9419386399738 329.65287139158517" stroke-width="2"></path><path stroke="#fff" d="M276.0439780720385 329.2954500320074 L278.57877734110644 333.6052983664077" stroke-width="2"></path><path stroke="#dfe6e9" d="M269.7084758065653 332.8184038479815 L274.35570752700295 341.6729641045136" stroke-width="2"></path><path stroke="#fff" d="M263.21016616587934 336.03115412758183 L265.317171704742 340.56552593183454" stroke-width="2"></path><path stroke="#fff" d="M256.5642262532481 338.92619734366644 L258.4497004616897 343.5570705884553" stroke-width="2"></path><path stroke="#fff" d="M249.7861779692792 341.49677198866146 L251.44571723492186 346.2133310549502" stroke-width="2"></path><path stroke="#fff" d="M242.8918517598034 343.73687436637493 L244.32158015179684 348.5281035119208" stroke-width="2"></path><path stroke="#dfe6e9" d="M235.89734964313365 345.6412726139078 L238.29050628600922 355.3506907881683" stroke-width="2"></path><path stroke="#fff" d="M228.8190076030563 347.205518920912 L229.77964118982484 352.1123695516091" stroke-width="2"></path><path stroke="#fff" d="M221.6733574353832 348.4259599176577 L222.3958026832293 353.37349191491296" stroke-width="2"></path><path stroke="#fff" d="M214.47708813717725 349.29974520764733 L214.95965774174982 354.2764033812356" stroke-width="2"></path><path stroke="#fff" d="M207.247006928826 349.824834024849 L207.48857382645355 354.8189951590106" stroke-width="2"></path><path stroke="#dfe6e9" d="M200 350 L200 360" stroke-width="2"></path><path stroke="#fff" d="M192.752993071174 349.824834024849 L192.51142617354645 354.8189951590106" stroke-width="2"></path><path stroke="#fff" d="M185.52291186282275 349.29974520764733 L185.04034225825018 354.2764033812356" stroke-width="2"></path><path stroke="#fff" d="M178.3266425646168 348.4259599176577 L177.6041973167707 353.37349191491296" stroke-width="2"></path><path stroke="#fff" d="M171.18099239694374 347.205518920912 L170.22035881017518 352.1123695516091" stroke-width="2"></path><path stroke="#dfe6e9" d="M164.10265035686638 345.64127261390786 L161.7094937139908 355.3506907881684" stroke-width="2"></path><path stroke="#fff" d="M157.1081482401967 343.736874366375 L155.67841984820325 348.52810351192085" stroke-width="2"></path><path stroke="#fff" d="M150.21382203072073 341.49677198866146 L148.55428276507809 346.2133310549502" stroke-width="2"></path><path stroke="#fff" d="M143.43577374675192 338.92619734366644 L141.55029953831033 343.5570705884553" stroke-width="2"></path><path stroke="#fff" d="M136.78983383412066 336.03115412758183 L134.68282829525802 340.56552593183454" stroke-width="2"></path><path stroke="#dfe6e9" d="M130.29152419343478 332.81840384798153 L125.64429247299711 341.67296410451365" stroke-width="2"></path><path stroke="#fff" d="M123.95602192796143 329.29545003200735 L121.42122265889348 333.6052983664076" stroke-width="2"></path><path stroke="#fff" d="M117.79812389679954 325.47052070153404 L115.05806136002619 329.65287139158517" stroke-width="2"></path><path stroke="#fff" d="M111.83221215612905 321.3525491562421 L108.89328589466668 325.39763412811686" stroke-width="2"></path><path stroke="#fff" d="M106.07222036925299 316.95115310948336 L102.94129438156142 320.84952487979945" stroke-width="2"></path><path stroke="#dfe6e9" d="M100.5316012638807 312.27661222566513 L93.90037468147275 319.76171970737613" stroke-width="2"></path><path stroke="#fff" d="M95.22329521265947 307.33984411161816 L91.73073838641479 310.9178389153388" stroke-width="2"></path><path stroke="#fff" d="M90.15970001033402 302.15237881801966 L86.49835667734516 305.5574581119536" stroke-width="2"></path><path stroke="#fff" d="M85.35264191812279 296.72633191042564 L81.53106331539354 299.9505429741065" stroke-width="2"></path><path stroke="#fff" d="M80.81334804293688 291.0743761728067 L76.84045964436811 294.11018871190026" stroke-width="2"></path><path stroke="#dfe6e9" d="M76.55242011595155 285.20971200967335 L68.32258145701499 290.8903594769849" stroke-width="2"></path><path stroke="#fff" d="M72.57980973177183 279.1460366159199 L68.33247005616423 281.7842378364506" stroke-width="2"></path><path stroke="#fff" d="M68.90479510602236 272.897511986391 L64.53495494288977 275.32742905260403" stroke-width="2"></path><path stroke="#fff" d="M65.5359594056444 266.47873183988617 L61.05382471916589 268.6946895678824" stroke-width="2"></path><path stroke="#fff" d="M62.48117070251266 259.90468753485436 L57.89720972592974 261.9015104526828" stroke-width="2"></path><path stroke="#dfe6e9" d="M59.74756359718779 253.19073305638037 L50.397401170333644 256.73678192680575" stroke-width="2"></path><path stroke="#fff" d="M57.34152255572698 246.35254915624213 L52.586239974251214 247.89763412811686" stroke-width="2"></path><path stroke="#fff" d="M55.26866699846727 239.40610672978804 L50.44428923174951 240.71964362078097" stroke-width="2"></path><path stroke="#fff" d="M53.53383817560919 232.3676295151709 L48.65163278146283 233.44655049900993" stroke-width="2"></path><path stroke="#fff" d="M52.141087860252384 225.25355620205588 L47.212457455594134 226.09534140879106" stroke-width="2"></path><path stroke="#dfe6e9" d="M51.09366888529189 218.08050203829853 L41.166580144311354 219.28586884085178" stroke-width="2"></path><path stroke="#fff" d="M50.394027546276334 210.86522002426426 L45.40716179781888 211.22739402507307" stroke-width="2"></path><path stroke="#fff" d="M50.04379788797107 203.62456178541987 L45.0452578175701 203.74538051160053" stroke-width="2"></path><path stroke="#fff" d="M50.04379788797107 196.37543821458016 L45.0452578175701 196.2546194883995" stroke-width="2"></path><path stroke="#fff" d="M50.394027546276334 189.13477997573577 L45.40716179781888 188.77260597492696" stroke-width="2"></path><path stroke="#dfe6e9" d="M51.09366888529189 181.9194979617015 L41.166580144311354 180.71413115914825" stroke-width="2"></path><path stroke="#fff" d="M52.141087860252384 174.74644379794415 L47.212457455594134 173.90465859120897" stroke-width="2"></path><path stroke="#fff" d="M53.53383817560919 167.63237048482915 L48.65163278146283 166.55344950099013" stroke-width="2"></path><path stroke="#fff" d="M55.26866699846727 160.593893270212 L50.44428923174951 159.28035637921906" stroke-width="2"></path><path stroke="#fff" d="M57.341522555726954 153.6474508437579 L52.586239974251185 152.10236587188317" stroke-width="2"></path><path stroke="#dfe6e9" d="M59.747563597187764 146.80926694361966 L50.397401170333616 143.2632180731943" stroke-width="2"></path><path stroke="#fff" d="M62.48117070251266 140.09531246514564 L57.89720972592974 138.09848954731717" stroke-width="2"></path><path stroke="#fff" d="M65.5359594056444 133.5212681601139 L61.05382471916589 131.3053104321177" stroke-width="2"></path><path stroke="#fff" d="M68.90479510602233 127.10248801360903 L64.53495494288974 124.672570947396" stroke-width="2"></path><path stroke="#fff" d="M72.57980973177182 120.85396338408013 L68.33247005616421 118.21576216354947" stroke-width="2"></path><path stroke="#dfe6e9" d="M76.55242011595152 114.79028799032666 L68.32258145701496 109.1096405230151" stroke-width="2"></path><path stroke="#fff" d="M80.81334804293684 108.92562382719332 L76.84045964436807 105.88981128809976" stroke-width="2"></path><path stroke="#fff" d="M85.35264191812276 103.2736680895744 L81.53106331539351 100.04945702589355" stroke-width="2"></path><path stroke="#fff" d="M90.15970001033399 97.84762118198041 L86.49835667734513 94.44254188804643" stroke-width="2"></path><path stroke="#fff" d="M95.22329521265938 92.6601558883819 L91.73073838641469 89.0821610846613" stroke-width="2"></path><path stroke="#dfe6e9" d="M100.53160126388067 87.72338777433487 L93.90037468147271 80.23828029262386" stroke-width="2"></path><path stroke="#fff" d="M106.07222036925302 83.04884689051659 L102.94129438156145 79.15047512020047" stroke-width="2"></path><path stroke="#fff" d="M111.83221215612902 78.6474508437579 L108.89328589466665 74.60236587188317" stroke-width="2"></path><path stroke="#fff" d="M117.7981238967995 74.52947929846599 L115.05806136002614 70.34712860841485" stroke-width="2"></path><path stroke="#fff" d="M123.95602192796133 70.70454996799268 L121.42122265889337 66.39470163359243" stroke-width="2"></path><path stroke="#dfe6e9" d="M130.29152419343475 67.1815961520185 L125.64429247299707 58.327035895486404" stroke-width="2"></path><defs><path d="M195.5499187876616 30.058254754155257 A 180 180 0 1 1 185.1835237328981 30.646901324403245" id="path0"></path><path d="M236.34895171369487 33.93147887298002 A 180 180 0 1 1 226.14291291407687 32.02217972492025" id="path5"></path><path d="M271.0166665365972 45.54407400805317 A 180 180 0 1 1 265.5829710223115 43.159718465291405" id="path10"></path><path d="M305.9167738064962 67.02768323284909 A 180 180 0 1 1 301.2115852391296 63.41224427723253" id="path15"></path><path d="M334.6613831745698 96.23916017344646 A 180 180 0 1 1 330.95815001099305 91.60275397548956" id="path20"></path><path d="M355.57996242674926 131.48083996945613 A 180 180 0 1 1 353.0939031177247 126.0929176047334" id="path25"></path><path d="M367.45679977283993 170.704604289428 A 180 180 0 1 1 366.33239504895005 164.87829222147616" id="path30"></path><path d="M369.6016565968341 211.63091052366758 A 180 180 0 1 1 369.90425277358656 205.7048128320933" id="path35"></path><path d="M361.8898816163586 251.88127051491125 A 180 180 0 1 1 363.60189290385284 246.19979045706015" id="path40"></path><path d="M344.76965516211715 289.1164796445735 A 180 180 0 1 1 347.7915856872319 284.00980419006817" id="path45"></path><path d="M319.23594256613916 321.1725629025167 A 180 180 0 1 1 323.3921687110252 316.937473466763" id="path50"></path><path d="M286.77267039323385 346.18653724891084 A 180 180 0 1 1 291.82164740161784 343.06916183599094" id="path55"></path><path d="M249.2664860228973 362.7046814168408 A 180 180 0 1 1 254.91478570333663 360.8861905545551" id="path60"></path><path d="M208.89711256130045 369.7670209082776 A 180 180 0 1 1 214.81647626710193 369.35309867559675" id="path65"></path><path d="M168.01067125732908 366.96311822253836 A 180 180 0 1 1 173.85708708592318 367.97782027507975" id="path70"></path><path d="M128.9833334634029 354.45592599194686 A 180 180 0 1 1 134.41702897768857 356.84028153470865" id="path75"></path><path d="M94.08322619350379 332.9723167671509 A 180 180 0 1 1 98.78841476087035 336.5877557227675" id="path80"></path><path d="M65.33861682543025 303.7608398265536 A 180 180 0 1 1 69.04184998900692 308.3972460245104" id="path85"></path><path d="M44.42003757325074 268.5191600305439 A 180 180 0 1 1 46.906096882275335 273.9070823952666" id="path90"></path><path d="M32.5432002271601 229.29539571057208 A 180 180 0 1 1 33.66760495104998 235.1217077785239" id="path95"></path><path d="M30.39834340316591 188.36908947633236 A 180 180 0 1 1 30.095747226413465 194.29518716790662" id="path100"></path><path d="M38.11011838364141 148.11872948508878 A 180 180 0 1 1 36.39810709614716 153.80020954293985" id="path105"></path><path d="M55.2303448378828 110.88352035542654 A 180 180 0 1 1 52.2084143127681 115.99019580993183" id="path110"></path><path d="M80.7640574338608 78.82743709748337 A 180 180 0 1 1 76.60783128897475 83.06252653323708" id="path115"></path><path d="M113.22732960676612 53.81346275108916 A 180 180 0 1 1 108.17835259838225 56.930838164009" id="path120"></path></defs><text fill="#fff"><textPath href="#path0">0</textPath><textPath href="#path5">5</textPath><textPath href="#path10">10</textPath><textPath href="#path15">15</textPath><textPath href="#path20">20</textPath><textPath href="#path25">25</textPath><textPath href="#path30">30</textPath><textPath href="#path35">35</textPath><textPath href="#path40">40</textPath><textPath href="#path45">45</textPath><textPath href="#path50">50</textPath><textPath href="#path55">55</textPath><textPath href="#path60">60</textPath><textPath href="#path65">65</textPath><textPath href="#path70">70</textPath><textPath href="#path75">75</textPath><textPath href="#path80">80</textPath><textPath href="#path85">85</textPath><textPath href="#path90">90</textPath><textPath href="#path95">95</textPath><textPath href="#path100">100</textPath><textPath href="#path105">105</textPath><textPath href="#path110">110</textPath><textPath href="#path115">115</textPath><textPath href="#path120">120</textPath></text>
                    </g>
                    </svg>